# xmcd
#
# Track frame offsets: 
#        150
#        16413
#        31140
#        49577
#        65727
#        82225
#        101965
#        119792
#        130493
#
# Disc length: 1991 seconds
#
# Revision: 0
# Processed by: cddbd v1.5.1PL2 Copyright (c) Steve Scherf et al.
# Submitted via: ExactAudioCopy v0.95a5
#
DISCID=8507c509
DTITLE=Katrina Elam - Katrina
DYEAR=2001
DGENRE=Country
TTITLE0=Runaround
TTITLE1=Preparing Me For You
TTITLE2=How Can I Least Expect It
TTITLE3=You'da Never Said Goodbye
TTITLE4=Rainin' in Vegas
TTITLE5=I Don't Want To Remember This
TTITLE6=Maybe Then
TTITLE7=My Little Lady Who
TTITLE8=Maybe I'm Doing Something Wrong
EXTD=
EXTT0=
EXTT1=
EXTT2=
EXTT3=
EXTT4=
EXTT5=
EXTT6=
EXTT7=
EXTT8=
PLAYORDER=
